# xmcd CD database file
#
# Track frame offsets:
#	150
#	21485
#	44834
#	68697
#	84731
#	100196
#	137582
#
# Disc length: 2102 seconds
#
# Revision: 0
# Processed by: cddbd v1.5.2PL0 Copyright (c) Steve Scherf et al.
# Submitted via: CDex 1.51
#
DISCID=5f083407
DTITLE=Hubert Laws - Flute By-Laws
DYEAR=1966
DGENRE=Jazz
TTITLE0=Bloodshot
TTITLE1=Miedo
TTITLE2=Mean Lene
TTITLE3=No You'd Better Not
TTITLE4=Let Her Go 
TTITLE5=Strange Girl
TTITLE6=Baila Cinderella
EXTD=YEAR: 1966
EXTT0=
EXTT1=
EXTT2=
EXTT3=
EXTT4=
EXTT5=
EXTT6=
PLAYORDER=
